inDegrees=no
nColumns=24
nRows=18
DataType=double
version=3
OpenSimVersion=4.5
endheader
time	pelvis_tilt	pelvis_list	pelvis_rotation	pelvis_tz	pelvis_ty	pelvis_tx	hip_flexion_r	hip_adduction_r	hip_rotation_r	knee_angle_r	ankle_angle_r	subtalar_angle_r	mtp_angle_r	hip_flexion_l	hip_adduction_l	hip_rotation_l	knee_angle_l	ankle_angle_l	subtalar_angle_l	mtp_angle_l	lumbar_extension	lumbar_bending	lumbar_rotation
0.6299999999999999	-0.01399178497069169	0.05224258256453431	0.09838205112206619	-0.07855973000000002	0.87657966	0.5907138199999999	0.5259242882474386	-0.09148676873840492	-0.3364055943352517	-0.2951907483192234	0.1301795158977975	0.01250242977908066	0	-0.2596357251166006	0.08709728190120121	-0.2113161728995326	-0.1897775323489101	0.3354097162708479	0.01827886100687172	0	-0.1108885885486438	-0.02943461777345968	-0.2128903539433459
0.6400000000000001	-0.01511755856628533	0.04961021069632367	0.1034899652456111	-0.07837565999999999	0.87518648	0.6017418	0.5260468660369318	-0.0902782547677696	-0.3313809861975046	-0.3167613955903336	0.119035713938454	0.007304934561618705	0	-0.2683126879614204	0.07990065531711134	-0.2081678251236058	-0.1968322085124085	0.3308886598823777	0.02061328687796856	0	-0.1084906960482262	-0.02433328862698629	-0.215549792933354
0.6499999999999999	-0.0183362313371165	0.04395016705944405	0.112576592248133	-0.07782456000000001	0.87419354	0.61254029	0.5235996651926186	-0.08407804258776275	-0.3285998799562741	-0.32212881309671	0.06144302267841879	-0.04926563708511011	0	-0.2704867791607827	0.06679296228313279	-0.2054903265136956	-0.2097158017940297	0.3263528798963377	0.02796859722685343	0	-0.1040235574182062	-0.0178747485190625	-0.2225629519027376
0.6600000000000001	-0.02043045414143161	0.04049393880997974	0.1175546341042637	-0.07735399000000001	0.87335087	0.62312672	0.5254766545784676	-0.08240614788951316	-0.3255076987955388	-0.3371885284428112	0.03098808053732132	-0.07013142004783299	0	-0.2733121101253966	0.05750018147929663	-0.2034568137315998	-0.2232986057389922	0.3156507434525881	0.0329991501305658	0	-0.1019378130402505	-0.01349820294919649	-0.2216012618713206
0.6699999999999999	-0.02521586191029821	0.03083264528969711	0.1182579354332932	-0.07606799	0.87271094	0.6340982199999999	0.5286526937483065	-0.06907084262805767	-0.3035908801280612	-0.3485825020574113	0.004820688231267264	-0.1149861591200747	0	-0.2729399877774472	0.04292489570612164	-0.2016630346631688	-0.2365069929261707	0.3053228427759791	0.03844924754880059	0	-0.09503183229677088	-0.002684958321666162	-0.2190851105731768
0.6800000000000002	-0.02379372417869784	0.02350920402960376	0.1212000756360231	-0.07538756999999999	0.87265156	0.64463792	0.5319386797598418	-0.06413616205642075	-0.2952644310587877	-0.3786626576054561	-0.009190124900556974	-0.1210740387678306	0	-0.2745578092084103	0.02912140639641746	-0.1980895473707366	-0.2578070696573259	0.2912543212051023	0.04132516059859821	0	-0.09748627224322261	0.006612227344136172	-0.2162795637882989
0.6899999999999999	-0.02138668023895459	0.01567478636865281	0.1233786088611624	-0.07428983000000003	0.87292683	0.6560391099999999	0.534512910554037	-0.05676900982309403	-0.286273649811412	-0.4129467692222897	-0.01123298531706068	-0.1385001088638317	0	-0.2776990739146337	0.01433401302817562	-0.1932778573589609	-0.2789029976693362	0.2732132658466709	0.04446550464364112	0	-0.09861001906274705	0.01590461056196872	-0.2138800491788745
0.7000000000000002	-0.01809771672861122	0.007533466346498307	0.1245135069730606	-0.07271163999999999	0.87328229	0.6676424	0.5335015714904544	-0.04661022264982415	-0.2778823186507944	-0.4434746095774528	-0.004830938724497152	-0.155208132703204	0	-0.2804705342446872	-0.001512100031385701	-0.1869284165608488	-0.3022462830101808	0.2516631080428474	0.04994607219449016	0	-0.1002447822302263	0.02488173670234278	-0.2104864622226904
0.71	-0.01444639840711848	-0.0005558801451529853	0.124385441244826	-0.07070598000000003	0.87394715	0.67935538	0.529742376278688	-0.03508969974901809	-0.2723614032764294	-0.468615576019337	0.002088109648157988	-0.165802891778982	0	-0.2807283352577029	-0.01785296349387204	-0.1822946309267887	-0.3302303480429971	0.2278118228065942	0.05598677262550487	0	-0.1023426706091174	0.03260844386580701	-0.2059787705184344
0.7199999999999998	-0.01198178344712061	-0.01042167160588408	0.1246916795917311	-0.06869443	0.87469579	0.69127999	0.5217790977636305	-0.0201778246116021	-0.2690997693203485	-0.4837248384703756	0.01396059861298096	-0.1841942317512289	0	-0.2767703437280088	-0.03667534725695112	-0.1789677546434059	-0.3628572477184464	0.1990724073733157	0.06877790970799559	0	-0.102279882214744	0.04343158922258512	-0.2057821490552876
0.73	-0.008486347341885948	-0.01759517477898638	0.1258341471636065	-0.06677349000000002	0.87578168	0.70272176	0.5090526972120243	-0.007214000987727624	-0.2658275612869943	-0.4918042365330951	0.02695061613826937	-0.2010235004721446	0	-0.2670486000894077	-0.05339151183555353	-0.1738334707135951	-0.4062729846390345	0.1665277366166461	0.07720419126141727	0	-0.1044558700634045	0.05014134608892152	-0.2016082369097099
0.7399999999999998	-0.006343558959922767	-0.02442985346551558	0.1288382099518017	-0.06510366000000004	0.8770498600000001	0.71374217	0.4945877075209291	0.005994276592773836	-0.260265764541961	-0.4931397654437809	0.03757705014744419	-0.2159456489666037	0	-0.2506307283370003	-0.06943365120098674	-0.1653033827358514	-0.4555333530987316	0.1257249748797854	0.0823110567668109	0	-0.1057835011846921	0.05634180889820896	-0.1991686343562952
0.75	-0.005127711107106109	-0.03019741440027083	0.131755764019976	-0.06362110000000001	0.87835513	0.7244028	0.480308789650317	0.018211803362615	-0.2546763586080235	-0.4917938889995587	0.05027656878884536	-0.2289276500201048	0	-0.2284454141515153	-0.08413084211376115	-0.1581402980638593	-0.5108545184085825	0.07329559132782412	0.08095762374505938	0	-0.1068254671114558	0.0619466606469608	-0.1964007702771654
0.7599999999999998	-0.009451818279479047	-0.03865024833514773	0.1419312187209631	-0.06266773	0.87950542	0.7344450299999999	0.4695244296983084	0.03117546362367149	-0.247456976770212	-0.484410447957389	0.04986151675181757	-0.2571134730200565	0	-0.1922518559588652	-0.1012906578690475	-0.1398909476075791	-0.5739547378440211	0.02059219108329971	0.0681978219548931	0	-0.1011500551917043	0.06980790930834183	-0.2015064721715467
0.77	-0.008321866996689187	-0.04436043291325761	0.1480963787988483	-0.06138226999999999	0.88070607	0.74474412	0.4557450374514548	0.04215365774801148	-0.2426687771448389	-0.4846817911546039	0.06555325247198027	-0.2724398446561994	0	-0.1625842714623164	-0.1166087130113046	-0.1311824936125326	-0.6344996380003743	-0.02741483200593074	0.06301248662086271	0	-0.1011267334041075	0.07447730018274144	-0.1997955283492776
0.7799999999999998	-0.00862436062475194	-0.05173504908023212	0.1556374372914718	-0.06053834999999999	0.8818706900000001	0.7545194199999999	0.4440954293010395	0.05217416649890313	-0.2429602176338576	-0.4840047809048151	0.07516734821657564	-0.2846175388237198	0	-0.1276782444041916	-0.1310689423168649	-0.1152378856891618	-0.6988209423149188	-0.0650738180313732	0.05192769040380479	0	-0.100054044097455	0.08178763723652678	-0.1987646674289456
0.79	-0.01044129522589777	-0.05874042055601304	0.1631377680379728	-0.05974088000000002	0.8828991500000001	0.76389366	0.43412937063402	0.06027764504384531	-0.2502593266354989	-0.4823541762563801	0.08236205720741635	-0.2909335328301784	0	-0.08840412266043905	-0.1423827529589209	-0.09637589761282818	-0.7652230536454976	-0.09879454207805198	0.03766934054029578	0	-0.09775997006413137	0.08841683371884838	-0.1966864642696219
0.7999999999999998	-0.01192404496246222	-0.06288877923353106	0.1676163634856647	-0.05883002000000001	0.88405535	0.77311314	0.4231487244966138	0.06559556134744371	-0.2585816329912599	-0.480318829831372	0.0929377925434134	-0.2905866121639631	0	-0.05056088013146844	-0.1482090005959528	-0.07845231355956438	-0.8278102141741578	-0.1340331302805041	0.016689444460419	0	-0.09647050213773499	0.09164423740497465	-0.1903585868398852
